<svg xmlns="http://www.w3.org/2000/svg" display="none">
<symbol id="title" viewBox="0 0 24 24" >
  <path d="M14.9163 3.50668C15.4832 2.83676 16.5015 2.79441 17.1221 3.41494L18.7029 4.99582C19.2546 5.54746 19.2913 6.42985 18.7874 7.02539L8.38171 19.323C8.33797 19.3747 8.28418 19.4169 8.22362 19.4472L6.11805 20.5H20C20.2762 20.5 20.5 20.7239 20.5 21C20.5 21.2761 20.2762 21.5 20 21.5H4.00001C3.76812 21.5 3.56667 21.3406 3.51339 21.1149C3.46011 20.8892 3.569 20.6565 3.77641 20.5528L7.68461 18.5987L18.024 6.37945C18.1919 6.18094 18.1797 5.88681 17.9958 5.70293L16.4149 4.12204C16.2081 3.9152 15.8686 3.92932 15.6797 4.15262L5.4439 16.2495L4.47436 19.1581C4.38703 19.4201 4.10387 19.5617 3.8419 19.4743C3.57993 19.387 3.43835 19.1039 3.52567 18.8419L4.52567 15.8419C4.54579 15.7815 4.57723 15.7256 4.61832 15.677L14.9163 3.50668Z" fill="black"/>
</symbol>
<symbol id="color" viewBox="0 0 24 24" >
  <path d="M20 13.998c-.092.065-2 2.083-2 3.5 0 1.494.949 2.448 2 2.5.906.044 2-.891 2-2.5 0-1.5-1.908-3.435-2-3.5zm-16.586-1c0 .534.208 1.036.586 1.414l5.586 5.586c.378.378.88.586 1.414.586s1.036-.208 1.414-.586l7-7-.707-.707L11 4.584 8.707 2.291 7.293 3.705l2.293 2.293L4 11.584c-.378.378-.586.88-.586 1.414zM11 7.412l5.586 5.586L11 18.584h.001l-.001 1v-1l-5.586-5.586L11 7.412z"/>
</symbol>
<symbol id="deadline" viewBox="0 0 24 24" >
  <path d="M12,14a1,1,0,1,0-1-1A1,1,0,0,0,12,14Zm5,0a1,1,0,1,0-1-1A1,1,0,0,0,17,14Zm-5,4a1,1,0,1,0-1-1A1,1,0,0,0,12,18Zm5,0a1,1,0,1,0-1-1A1,1,0,0,0,17,18ZM7,14a1,1,0,1,0-1-1A1,1,0,0,0,7,14ZM19,4H18V3a1,1,0,0,0-2,0V4H8V3A1,1,0,0,0,6,3V4H5A3,3,0,0,0,2,7V19a3,3,0,0,0,3,3H19a3,3,0,0,0,3-3V7A3,3,0,0,0,19,4Zm1,15a1,1,0,0,1-1,1H5a1,1,0,0,1-1-1V10H20ZM20,8H4V7A1,1,0,0,1,5,6H19a1,1,0,0,1,1,1ZM7,18a1,1,0,1,0-1-1A1,1,0,0,0,7,18Z"/>
</symbol>
<symbol id="no-color" viewBox="0 0 24 24" >
  <path  d="M5.72 5.72a.75.75 0 011.06 0L12 10.94l5.22-5.22a.75.75 0 111.06 1.06L13.06 12l5.22 5.22a.75.75 0 11-1.06 1.06L12 13.06l-5.22 5.22a.75.75 0 01-1.06-1.06L10.94 12 5.72 6.78a.75.75 0 010-1.06z"/>
</symbol>
<symbol id="delete" viewBox="0 0 24 24" >
  <path d="M11.4698 2.25H11.5302C12.0129 2.24999 12.421 2.24998 12.7592 2.27848C13.1166 2.30859 13.451 2.37374 13.7758 2.53412C14.0492 2.66911 14.2983 2.84863 14.5129 3.06534C14.7677 3.32282 14.9353 3.61939 15.0768 3.94892C15.2108 4.26078 15.3399 4.64793 15.4925 5.10588L15.7115 5.76283C15.7377 5.84148 15.7502 5.92141 15.7502 6H18.2222C19.2041 6 20 6.79594 20 7.77778C20 7.90051 19.9005 8 19.7778 8H3.22222C3.09949 8 3 7.90051 3 7.77778C3 6.79594 3.79594 6 4.77778 6H7.24979C7.2498 5.92141 7.26226 5.84148 7.28848 5.76283L7.50745 5.10592C7.66009 4.64796 7.78913 4.26078 7.92313 3.94892C8.06472 3.61939 8.23225 3.32282 8.48713 3.06534C8.70165 2.84863 8.95073 2.66911 9.22416 2.53412C9.54902 2.37374 9.88335 2.30859 10.2407 2.27848C10.579 2.24998 10.9871 2.24999 11.4698 2.25ZM14.079 5.60888L14.2094 6H8.79056L8.92093 5.60888C9.08566 5.11469 9.19521 4.788 9.3013 4.54107C9.40259 4.30534 9.47964 4.19487 9.55315 4.12061C9.65067 4.02211 9.76388 3.9405 9.88817 3.87915C9.98186 3.83289 10.111 3.79473 10.3667 3.77318C10.6345 3.75062 10.9791 3.75 11.5 3.75C12.0209 3.75 12.3655 3.75062 12.6333 3.77318C12.889 3.79473 13.0181 3.83289 13.1118 3.87915C13.2361 3.9405 13.3493 4.02211 13.4468 4.12061C13.5203 4.19487 13.5974 4.30534 13.6987 4.54107C13.8048 4.788 13.9143 5.11469 14.079 5.60888Z"/>
  <path d="M6.31017 21.6385C5.88874 21.2769 5.79537 20.67 5.60863 19.4562L4.08861 9.57603C4.04742 9.3083 4.02682 9.17444 4.10165 9.08722C4.17647 9 4.31191 9 4.58279 9H18.4172C18.6881 9 18.8235 9 18.8983 9.08722C18.9731 9.17444 18.9526 9.3083 18.9114 9.57603L17.3913 19.4562C17.2046 20.67 17.1112 21.2769 16.6898 21.6385C16.2684 22 15.6543 22 14.4262 22H8.57374C7.34564 22 6.7316 22 6.31017 21.6385Z"/>
</symbol>
<symbol id="date" viewBox="0 0 24 24" >
  <path d="m22 2.25h-3.25v-1.5c-.014-.404-.344-.726-.75-.726s-.736.322-.75.725v.001 1.5h-4.5v-1.5c-.014-.404-.344-.726-.75-.726s-.736.322-.75.725v.001 1.5h-4.5v-1.5c-.014-.404-.344-.726-.75-.726s-.736.322-.75.725v.001 1.5h-3.25c-1.104 0-2 .895-2 1.999v17.75c0 1.105.895 2 2 2h20c1.105 0 2-.895 2-2v-17.75c0-1.104-.896-1.999-2-1.999zm.5 19.75c0 .276-.224.499-.499.5h-20.001c-.276 0-.5-.224-.5-.5v-17.75c.001-.276.224-.499.5-.499h3.25v1.5c.014.404.344.726.75.726s.736-.322.75-.725v-.001-1.5h4.5v1.5c.014.404.344.726.75.726s.736-.322.75-.725v-.001-1.5h4.5v1.5c.014.404.344.726.75.726s.736-.322.75-.725v-.001-1.5h3.25c.276 0 .499.224.499.499z"/>
  <path d="m5.25 9h3v2.25h-3z"/>
  <path d="m5.25 12.75h3v2.25h-3z"/>
  <path d="m5.25 16.5h3v2.25h-3z"/>
  <path d="m10.5 16.5h3v2.25h-3z"/>
  <path d="m10.5 12.75h3v2.25h-3z"/>
  <path d="m10.5 9h3v2.25h-3z"/>
  <path d="m15.75 16.5h3v2.25h-3z"/>
  <path d="m15.75 12.75h3v2.25h-3z"/>
  <path d="m15.75 9h3v2.25h-3z"/>
</symbol>
</svg>